<svg id="eHCPe3E9bDv1" xmlns="http://www.w3.org/2000/svg" xmlns:xlink="http://www.w3.org/1999/xlink" viewBox="0 0 600 600" shape-rendering="geometricPrecision" text-rendering="geometricPrecision"><rect width="62.546207" height="62.546207" rx="0" ry="0" transform="translate(12.33565 8.969244)" fill="#a5a5a5" stroke-width="0"/><rect width="62.546207" height="62.546207" rx="0" ry="0" transform="translate(12.33565 527.190152)" fill="#a5a5a5" stroke-width="0"/><rect width="60" height="60" rx="0" ry="0" transform="translate(530.223274 527.463256)" fill="#a5a5a5" stroke-width="0"/><rect width="60" height="60" rx="0" ry="0" transform="translate(530.223274 9.242348)" fill="#a5a5a5" stroke-width="0"/><g transform="translate(0 0.000001)"><line x1="-24.619252" y1="29.276948" x2="24.619252" y2="-29.276948" transform="translate(278.929469 193.538371)" fill="none" stroke="#000" stroke-width="5"/><line x1="0" y1="-135.738577" x2="0" y2="135.738578" transform="translate(303.548721 300)" fill="none" stroke="#000" stroke-width="5"/><line x1="-21.070531" y1="27.946178" x2="21.070531" y2="-27.946178" transform="translate(324.619252 407.7924)" fill="none" stroke="#000" stroke-width="5"/></g><g transform="matrix(0-1 1 0-.000007 600.000024)"><line x1="-24.619252" y1="29.276948" x2="24.619252" y2="-29.276948" transform="translate(278.929469 193.538371)" fill="none" stroke="#000" stroke-width="5"/><line x1="0" y1="-135.738577" x2="0" y2="135.738578" transform="translate(303.548721 300)" fill="none" stroke="#000" stroke-width="5"/><line x1="-21.070531" y1="27.946178" x2="21.070531" y2="-27.946178" transform="translate(324.619252 407.7924)" fill="none" stroke="#000" stroke-width="5"/></g></svg>
